<?xml version="1.0" encoding="utf-8"?>
<!-- Generator: Adobe Illustrator 14.0.0, SVG Export Plug-In . SVG Version: 6.00 Build 43363)  -->
<!DOCTYPE svg PUBLIC "-//W3C//DTD SVG 1.1//EN" "http://www.w3.org/Graphics/SVG/1.1/DTD/svg11.dtd">
<svg version="1.1" id="Layer_1" xmlns="http://www.w3.org/2000/svg" xmlns:xlink="http://www.w3.org/1999/xlink" x="0px" y="0px"
	 width="512px" height="512px" viewBox="209 300 192.756 192.756" enable-background="new 209 300 192.756 192.756" xml:space="preserve">
<g>
	<polygon fill-rule="evenodd" clip-rule="evenodd" fill="#FFFFFF" points="209,300 401.756,300 401.756,492.756 209,492.756 
		209,300 	"/>
	<path fill="#C9252F" stroke="#000000" stroke-width="0.4503" stroke-miterlimit="2.6131" d="M289.672,380.76l-41.569-28.985
		c0,0,49.375-52.857,109.674-0.703c0,0-48.563,44.276-49.465,44.65l-40.62,40.709c0,0,27.26,28.515,69.503,3.002l-19.678-25.701
		l42.064,28.515c0,0-20.491,23.638-52.446,23.919c0,0-29.516,4.221-57.678-23.356c0,0,50.639-45.023,53.076-48.402
		c0,0,34.662-31.799,36.287-36.864c0,0-24.372-28.703-67.971-2.532L289.672,380.76L289.672,380.76z"/>
	<polygon fill="#6C8CC7" stroke="#000000" stroke-width="0.4503" stroke-miterlimit="2.6131" points="299.828,396.66 
		282.495,317.584 304.158,382.589 315.804,352.76 308.221,394.126 326.906,475.171 303.618,407.635 293.057,441.122 299.828,396.66 
			"/>
	<path fill="#A2B9E0" stroke="#000000" stroke-width="0.4503" stroke-miterlimit="2.6131" d="M287.912,388.781
		c0,0-58.221,1.406-70.408,6.19c0,0,47.661,11.257,85.572,9.005c0,0,56.598-1.405,90.176-11.255c0,0-55.243-7.037-67.159-5.066
		l36.288,4.221c0,0-28.976,6.754-59.305,5.628c0,0-47.66,0.563-57.139-3.94L287.912,388.781L287.912,388.781z"/>
	<path stroke="#FFFFFF" stroke-width="0.2253" stroke-miterlimit="2.6131" d="M248.348,405.477l-3.898,5.249l1.087,0.114
		c0.513,0.053,0.875,0.057,1.086,0.01c0.345-0.069,0.651-0.231,0.919-0.488c0.269-0.257,0.473-0.615,0.61-1.077l0.164,0.017
		l-0.438,2.118l-5.229-0.544l3.902-5.26l-0.847-0.088c-0.329-0.035-0.545-0.047-0.65-0.037c-0.201,0.017-0.393,0.073-0.576,0.167
		c-0.184,0.096-0.341,0.229-0.473,0.404c-0.132,0.175-0.243,0.401-0.336,0.681l-0.155-0.017l0.323-1.721L248.348,405.477
		L248.348,405.477z"/>
	<path stroke="#FFFFFF" stroke-width="0.2253" stroke-miterlimit="2.6131" d="M250.777,407.438c0.343,0.033,0.654,0.155,0.933,0.368
		c0.28,0.211,0.482,0.492,0.605,0.846s0.168,0.731,0.132,1.136c-0.051,0.58-0.236,1.054-0.554,1.42
		c-0.384,0.439-0.877,0.633-1.482,0.574c-0.593-0.055-1.031-0.314-1.314-0.776c-0.282-0.464-0.4-0.979-0.349-1.55
		c0.051-0.587,0.259-1.084,0.625-1.489S250.205,407.384,250.777,407.438L250.777,407.438z M250.767,407.75
		c-0.144-0.013-0.272,0.03-0.384,0.135c-0.112,0.104-0.199,0.319-0.26,0.646c-0.061,0.328-0.118,0.788-0.169,1.378
		c-0.028,0.313-0.034,0.607-0.018,0.883c0.014,0.21,0.066,0.373,0.157,0.492c0.092,0.117,0.204,0.182,0.331,0.194
		c0.129,0.012,0.236-0.015,0.327-0.08c0.119-0.089,0.204-0.22,0.257-0.396c0.08-0.272,0.156-0.831,0.229-1.676
		c0.044-0.496,0.047-0.84,0.01-1.03c-0.037-0.19-0.105-0.332-0.201-0.428C250.978,407.803,250.886,407.762,250.767,407.75
		L250.767,407.75z"/>
	<path stroke="#FFFFFF" stroke-width="0.2253" stroke-miterlimit="2.6131" d="M257.167,406.271l-0.372,4.715
		c-0.024,0.318-0.031,0.508-0.018,0.568c0.016,0.099,0.051,0.173,0.112,0.226c0.059,0.052,0.167,0.091,0.324,0.115l-0.013,0.144
		l-1.691,0.196l0.051-0.647c-0.22,0.234-0.411,0.39-0.572,0.466c-0.164,0.077-0.343,0.107-0.541,0.091
		c-0.504-0.044-0.882-0.309-1.138-0.802c-0.207-0.4-0.289-0.875-0.245-1.429c0.034-0.439,0.139-0.829,0.312-1.165
		c0.175-0.338,0.396-0.583,0.663-0.742c0.269-0.155,0.55-0.221,0.843-0.196c0.188,0.017,0.351,0.069,0.491,0.157
		c0.142,0.088,0.287,0.234,0.438,0.438l0.098-1.234c0.024-0.313,0.026-0.502,0.006-0.568c-0.027-0.088-0.072-0.156-0.136-0.202
		c-0.064-0.045-0.189-0.078-0.375-0.095l0.014-0.183L257.167,406.271L257.167,406.271z M255.768,408.949
		c-0.175-0.433-0.414-0.663-0.715-0.688c-0.104-0.007-0.192,0.014-0.263,0.066c-0.112,0.082-0.209,0.234-0.293,0.455
		c-0.083,0.223-0.146,0.568-0.182,1.039c-0.042,0.518-0.035,0.904,0.02,1.158c0.053,0.255,0.138,0.442,0.256,0.564
		c0.06,0.062,0.147,0.096,0.259,0.105c0.248,0.021,0.496-0.16,0.747-0.546L255.768,408.949L255.768,408.949z"/>
	<path stroke="#FFFFFF" stroke-width="0.2253" stroke-miterlimit="2.6131" d="M259.506,408.312l-0.233,3.248
		c-0.022,0.289-0.002,0.476,0.056,0.561c0.058,0.087,0.182,0.142,0.371,0.168l-0.013,0.158l-2.128-0.166l0.011-0.156
		c0.173,0.005,0.308-0.036,0.398-0.129c0.062-0.063,0.102-0.238,0.124-0.528l0.172-2.392c0.021-0.29,0.002-0.477-0.058-0.563
		c-0.058-0.085-0.18-0.141-0.364-0.166l0.012-0.162L259.506,408.312L259.506,408.312z M259.058,406.281
		c0.184,0.015,0.333,0.093,0.451,0.236c0.116,0.142,0.167,0.308,0.155,0.494c-0.013,0.188-0.089,0.342-0.226,0.463
		c-0.138,0.121-0.296,0.175-0.477,0.16c-0.18-0.014-0.328-0.091-0.445-0.232c-0.117-0.141-0.168-0.306-0.155-0.492
		c0.013-0.188,0.089-0.342,0.224-0.465C258.72,406.322,258.879,406.268,259.058,406.281L259.058,406.281z"/>
	<path stroke="#FFFFFF" stroke-width="0.2253" stroke-miterlimit="2.6131" d="M262.297,412.027c-0.51,0.408-0.957,0.599-1.341,0.57
		c-0.225-0.018-0.408-0.105-0.546-0.271c-0.138-0.166-0.201-0.361-0.186-0.593c0.021-0.313,0.168-0.586,0.444-0.817
		c0.276-0.231,0.861-0.525,1.759-0.878l0.029-0.412c0.019-0.311,0.017-0.508-0.011-0.59c-0.027-0.082-0.083-0.157-0.169-0.224
		c-0.088-0.066-0.187-0.104-0.299-0.111c-0.184-0.014-0.337,0.019-0.46,0.095c-0.077,0.047-0.118,0.105-0.122,0.176
		c-0.005,0.062,0.031,0.141,0.104,0.237c0.097,0.134,0.144,0.259,0.135,0.376c-0.01,0.144-0.068,0.262-0.177,0.354
		c-0.109,0.094-0.247,0.137-0.415,0.123c-0.178-0.012-0.321-0.078-0.434-0.198c-0.112-0.119-0.164-0.255-0.154-0.404
		c0.015-0.209,0.108-0.406,0.281-0.585c0.173-0.182,0.406-0.312,0.701-0.395c0.294-0.081,0.597-0.112,0.906-0.089
		c0.375,0.026,0.665,0.13,0.873,0.312c0.207,0.181,0.337,0.37,0.389,0.566c0.033,0.128,0.033,0.411,0.003,0.853l-0.105,1.593
		c-0.012,0.188-0.012,0.306-0.002,0.354c0.011,0.05,0.031,0.087,0.056,0.111c0.026,0.027,0.059,0.04,0.095,0.042
		c0.074,0.006,0.152-0.043,0.234-0.146l0.122,0.113c-0.156,0.208-0.313,0.355-0.47,0.442c-0.156,0.086-0.332,0.122-0.522,0.109
		c-0.226-0.016-0.398-0.083-0.518-0.202C262.378,412.424,262.311,412.25,262.297,412.027L262.297,412.027z M262.318,411.707
		l0.091-1.374c-0.354,0.184-0.624,0.389-0.805,0.613c-0.12,0.151-0.185,0.306-0.195,0.467c-0.01,0.134,0.028,0.257,0.116,0.366
		c0.064,0.083,0.16,0.13,0.286,0.139C261.953,411.928,262.122,411.857,262.318,411.707L262.318,411.707z"/>
	<path stroke="#FFFFFF" stroke-width="0.2253" stroke-miterlimit="2.6131" d="M267.68,411.928l0.126,0.113
		c-0.208,0.351-0.456,0.605-0.743,0.765c-0.289,0.16-0.589,0.23-0.899,0.211c-0.529-0.034-0.937-0.269-1.228-0.698
		c-0.291-0.433-0.42-0.938-0.385-1.519c0.03-0.559,0.204-1.041,0.516-1.448c0.376-0.489,0.869-0.715,1.476-0.676
		c0.409,0.025,0.729,0.152,0.955,0.381c0.229,0.229,0.335,0.476,0.32,0.736c-0.009,0.169-0.066,0.299-0.169,0.393
		c-0.104,0.093-0.234,0.135-0.39,0.124c-0.167-0.01-0.301-0.076-0.403-0.197c-0.102-0.12-0.156-0.328-0.165-0.623
		c-0.006-0.184-0.04-0.315-0.101-0.393c-0.059-0.078-0.134-0.119-0.221-0.125c-0.134-0.009-0.256,0.059-0.359,0.202
		c-0.159,0.217-0.253,0.558-0.28,1.022c-0.024,0.388,0.014,0.76,0.111,1.12c0.1,0.358,0.245,0.633,0.441,0.816
		c0.147,0.136,0.327,0.21,0.538,0.223c0.137,0.01,0.271-0.015,0.4-0.075C267.348,412.222,267.5,412.103,267.68,411.928
		L267.68,411.928z"/>
	<path stroke="#FFFFFF" stroke-width="0.2253" stroke-miterlimit="2.6131" d="M273.778,411.616l-2.023-0.098l-0.266,0.565
		c-0.088,0.19-0.135,0.348-0.14,0.474c-0.007,0.167,0.051,0.293,0.178,0.378c0.073,0.051,0.258,0.095,0.556,0.132l-0.008,0.162
		l-1.904-0.092l0.007-0.163c0.206-0.022,0.378-0.102,0.519-0.239c0.139-0.14,0.316-0.431,0.53-0.874l2.264-4.65l0.08,0.004
		l1.845,4.982c0.176,0.472,0.326,0.771,0.447,0.896c0.091,0.095,0.226,0.155,0.398,0.178l-0.007,0.163l-2.771-0.135l0.007-0.162
		l0.115,0.004c0.222,0.011,0.379-0.014,0.473-0.074c0.063-0.043,0.098-0.109,0.102-0.196c0.002-0.053-0.004-0.107-0.018-0.164
		c-0.005-0.024-0.043-0.138-0.112-0.336L273.778,411.616L273.778,411.616z M273.649,411.284l-0.761-2.092l-0.971,2.008
		L273.649,411.284L273.649,411.284z"/>
	<path stroke="#FFFFFF" stroke-width="0.2253" stroke-miterlimit="2.6131" d="M278.425,407.544l-0.191,5.108
		c-0.01,0.291,0.017,0.478,0.079,0.561c0.061,0.083,0.187,0.135,0.374,0.153l-0.005,0.158l-2.136-0.085l0.004-0.158
		c0.176,0.002,0.309-0.048,0.396-0.144c0.059-0.064,0.094-0.244,0.104-0.532l0.16-4.257c0.01-0.286-0.015-0.472-0.076-0.555
		c-0.063-0.084-0.188-0.135-0.373-0.155l0.006-0.162L278.425,407.544L278.425,407.544z"/>
	<path stroke="#FFFFFF" stroke-width="0.2253" stroke-miterlimit="2.6131" d="M280.804,407.632l-0.167,5.107
		c-0.01,0.291,0.018,0.478,0.079,0.561s0.187,0.135,0.377,0.153l-0.006,0.156l-2.137-0.075l0.005-0.158
		c0.174,0.002,0.305-0.048,0.395-0.145c0.058-0.065,0.092-0.243,0.102-0.534l0.141-4.255c0.008-0.287-0.017-0.471-0.081-0.555
		c-0.062-0.082-0.186-0.134-0.372-0.152l0.006-0.163L280.804,407.632L280.804,407.632z"/>
	<path stroke="#FFFFFF" stroke-width="0.2253" stroke-miterlimit="2.6131" d="M283.12,409.56l-0.092,3.257
		c-0.007,0.291,0.02,0.479,0.083,0.56c0.062,0.083,0.187,0.132,0.376,0.15l-0.004,0.157l-2.138-0.064l0.004-0.158
		c0.175,0,0.305-0.05,0.394-0.146c0.059-0.067,0.092-0.243,0.099-0.533l0.069-2.4c0.009-0.291-0.019-0.477-0.082-0.559
		c-0.063-0.084-0.185-0.135-0.372-0.151l0.003-0.163L283.12,409.56L283.12,409.56z M282.585,407.549
		c0.183,0.005,0.336,0.077,0.459,0.214c0.123,0.138,0.183,0.3,0.177,0.488c-0.005,0.188-0.075,0.346-0.206,0.474
		c-0.132,0.128-0.289,0.188-0.47,0.184c-0.18-0.006-0.333-0.077-0.455-0.212c-0.123-0.137-0.182-0.299-0.177-0.485
		c0.005-0.188,0.074-0.348,0.204-0.477C282.248,407.605,282.404,407.544,282.585,407.549L282.585,407.549z"/>
	<path stroke="#FFFFFF" stroke-width="0.2253" stroke-miterlimit="2.6131" d="M286.062,413.144c-0.493,0.43-0.931,0.642-1.314,0.632
		c-0.227-0.005-0.413-0.086-0.558-0.245c-0.145-0.156-0.217-0.352-0.211-0.583c0.008-0.312,0.144-0.592,0.409-0.837
		c0.263-0.242,0.836-0.563,1.717-0.958l0.01-0.414c0.007-0.311-0.004-0.506-0.035-0.588c-0.031-0.081-0.091-0.153-0.18-0.215
		c-0.088-0.063-0.19-0.095-0.302-0.099c-0.184-0.004-0.335,0.035-0.456,0.117c-0.074,0.052-0.112,0.112-0.114,0.182
		c-0.002,0.062,0.037,0.14,0.114,0.231c0.104,0.129,0.155,0.253,0.151,0.369c-0.003,0.144-0.057,0.266-0.162,0.364
		c-0.106,0.099-0.242,0.146-0.407,0.141c-0.178-0.002-0.325-0.063-0.443-0.176c-0.118-0.115-0.176-0.247-0.171-0.396
		c0.005-0.212,0.089-0.411,0.254-0.599c0.165-0.189,0.392-0.33,0.681-0.426c0.293-0.097,0.591-0.14,0.901-0.132
		c0.376,0.008,0.671,0.098,0.886,0.27c0.216,0.171,0.354,0.353,0.413,0.548c0.037,0.124,0.051,0.408,0.041,0.851l-0.034,1.597
		c-0.003,0.187,0,0.304,0.013,0.354c0.013,0.047,0.033,0.085,0.062,0.107c0.027,0.024,0.058,0.036,0.096,0.038
		c0.074,0.002,0.15-0.051,0.229-0.156l0.123,0.107c-0.144,0.215-0.294,0.368-0.447,0.463c-0.154,0.094-0.326,0.139-0.518,0.134
		c-0.227-0.004-0.401-0.064-0.525-0.178C286.158,413.534,286.084,413.368,286.062,413.144L286.062,413.144z M286.069,412.822
		l0.029-1.375c-0.345,0.199-0.603,0.417-0.774,0.647c-0.114,0.157-0.172,0.315-0.176,0.477c-0.003,0.136,0.042,0.255,0.131,0.358
		c0.069,0.081,0.167,0.123,0.294,0.127C285.713,413.061,285.878,412.982,286.069,412.822L286.069,412.822z"/>
	<path stroke="#FFFFFF" stroke-width="0.2253" stroke-miterlimit="2.6131" d="M289.872,409.714l-0.007,0.531
		c0.207-0.226,0.404-0.389,0.591-0.489c0.187-0.103,0.389-0.15,0.602-0.147c0.257,0.004,0.47,0.081,0.637,0.231
		c0.166,0.152,0.278,0.336,0.33,0.556c0.042,0.169,0.062,0.49,0.055,0.966l-0.021,1.601c-0.005,0.315,0.02,0.512,0.073,0.591
		c0.054,0.08,0.169,0.131,0.343,0.153l-0.002,0.157l-2.002-0.029l0.003-0.158c0.15-0.017,0.258-0.081,0.324-0.189
		c0.047-0.071,0.071-0.253,0.077-0.543l0.024-1.829c0.005-0.336-0.006-0.55-0.029-0.639c-0.024-0.088-0.065-0.155-0.126-0.206
		c-0.06-0.05-0.127-0.074-0.2-0.076c-0.244-0.003-0.471,0.174-0.685,0.532l-0.029,2.202c-0.005,0.308,0.018,0.503,0.072,0.586
		c0.055,0.083,0.157,0.136,0.307,0.158l-0.003,0.158l-2.002-0.03l0.002-0.158c0.167-0.016,0.287-0.068,0.358-0.16
		c0.048-0.064,0.076-0.255,0.081-0.572l0.03-2.32c0.004-0.311-0.021-0.505-0.074-0.582c-0.055-0.077-0.167-0.128-0.343-0.154
		l0.003-0.163L289.872,409.714L289.872,409.714z"/>
	<path stroke="#FFFFFF" stroke-width="0.2253" stroke-miterlimit="2.6131" d="M296.247,412.828l0.131,0.107
		c-0.189,0.362-0.422,0.631-0.702,0.807c-0.278,0.175-0.573,0.262-0.886,0.261c-0.528-0.004-0.949-0.214-1.263-0.629
		c-0.313-0.416-0.469-0.912-0.463-1.493c0.002-0.561,0.149-1.052,0.44-1.475c0.349-0.51,0.83-0.764,1.439-0.76
		c0.409,0.002,0.732,0.111,0.974,0.326c0.239,0.215,0.357,0.455,0.357,0.719c-0.003,0.168-0.053,0.3-0.149,0.4
		c-0.097,0.099-0.226,0.147-0.384,0.147c-0.166-0.002-0.304-0.061-0.411-0.174c-0.107-0.116-0.174-0.319-0.198-0.614
		c-0.016-0.184-0.056-0.314-0.121-0.388c-0.063-0.073-0.139-0.11-0.227-0.11c-0.135-0.001-0.251,0.072-0.348,0.222
		c-0.147,0.225-0.223,0.571-0.225,1.036c-0.003,0.387,0.054,0.757,0.17,1.111c0.117,0.353,0.276,0.617,0.481,0.791
		c0.155,0.128,0.338,0.192,0.549,0.194c0.137,0,0.271-0.032,0.394-0.099C295.929,413.142,296.077,413.015,296.247,412.828
		L296.247,412.828z"/>
	<path stroke="#FFFFFF" stroke-width="0.2253" stroke-miterlimit="2.6131" d="M300.211,411.683l-2.17,0.004
		c0.026,0.545,0.166,0.974,0.418,1.29c0.196,0.244,0.429,0.365,0.705,0.365c0.168,0,0.322-0.049,0.459-0.147
		c0.139-0.099,0.286-0.275,0.444-0.531l0.145,0.097c-0.214,0.455-0.45,0.776-0.709,0.965c-0.26,0.191-0.56,0.285-0.9,0.285
		c-0.588,0.002-1.032-0.232-1.335-0.7c-0.243-0.378-0.364-0.847-0.365-1.406c-0.002-0.687,0.176-1.232,0.533-1.639
		c0.357-0.407,0.774-0.611,1.255-0.611c0.4-0.001,0.747,0.17,1.042,0.511C300.029,410.506,300.188,411.013,300.211,411.683
		L300.211,411.683z M299.168,411.39c0-0.472-0.025-0.795-0.074-0.972c-0.049-0.175-0.128-0.309-0.231-0.399
		c-0.061-0.054-0.139-0.08-0.237-0.08c-0.146,0-0.266,0.076-0.361,0.226c-0.165,0.262-0.248,0.619-0.247,1.075v0.151L299.168,411.39
		L299.168,411.39z"/>
	<path stroke="#FFFFFF" stroke-width="0.2253" stroke-miterlimit="2.6131" d="M304.685,409.605c0.343-0.005,0.665,0.084,0.964,0.264
		c0.299,0.181,0.526,0.439,0.685,0.778c0.159,0.337,0.239,0.709,0.245,1.112c0.009,0.583-0.13,1.074-0.408,1.47
		c-0.338,0.48-0.811,0.724-1.417,0.733c-0.596,0.008-1.056-0.202-1.385-0.631c-0.327-0.431-0.494-0.931-0.501-1.502
		c-0.007-0.589,0.151-1.104,0.473-1.548C303.665,409.84,304.112,409.614,304.685,409.605L304.685,409.605z M304.706,409.917
		c-0.145,0.003-0.266,0.061-0.368,0.175c-0.102,0.115-0.167,0.339-0.195,0.672c-0.029,0.334-0.04,0.796-0.031,1.389
		c0.004,0.313,0.028,0.604,0.071,0.878c0.034,0.208,0.102,0.364,0.205,0.472s0.219,0.16,0.348,0.157c0.128,0,0.232-0.04,0.317-0.114
		c0.108-0.102,0.18-0.241,0.213-0.421c0.053-0.279,0.074-0.842,0.064-1.688c-0.007-0.499-0.038-0.841-0.095-1.026
		c-0.056-0.186-0.136-0.319-0.242-0.403C304.92,409.945,304.825,409.916,304.706,409.917L304.706,409.917z"/>
	<path stroke="#FFFFFF" stroke-width="0.2253" stroke-miterlimit="2.6131" d="M308.874,410.083l0.057,2.854
		c0.007,0.275,0.038,0.447,0.096,0.516c0.092,0.107,0.26,0.153,0.501,0.14l0.004,0.158L307.2,413.8l-0.004-0.158
		c0.178-0.006,0.304-0.03,0.378-0.071c0.074-0.042,0.124-0.097,0.15-0.168c0.027-0.072,0.039-0.218,0.035-0.44l-0.058-2.854
		l-0.575,0.013l-0.009-0.431l0.576-0.013l-0.006-0.303l-0.009-0.206c-0.008-0.423,0.133-0.777,0.425-1.065
		c0.293-0.287,0.692-0.438,1.202-0.448c0.345-0.008,0.604,0.055,0.775,0.186c0.169,0.133,0.256,0.279,0.26,0.443
		c0.002,0.132-0.047,0.248-0.151,0.346c-0.102,0.101-0.238,0.15-0.41,0.154c-0.147,0.004-0.264-0.033-0.352-0.11
		c-0.088-0.078-0.133-0.163-0.134-0.262c-0.002-0.025,0.006-0.081,0.022-0.162c0.009-0.051,0.014-0.098,0.014-0.142
		c-0.002-0.062-0.019-0.107-0.055-0.135c-0.045-0.044-0.102-0.064-0.165-0.063c-0.081,0.003-0.149,0.039-0.204,0.111
		c-0.054,0.07-0.078,0.184-0.075,0.34l0.023,0.769l0.012,0.523l0.582-0.012l0.011,0.431L308.874,410.083L308.874,410.083z"/>
	<path stroke="#FFFFFF" stroke-width="0.2253" stroke-miterlimit="2.6131" d="M314.174,407.992l0.076,2.449l0.166-0.006
		c0.254-0.009,0.459-0.055,0.619-0.14c0.157-0.084,0.289-0.223,0.396-0.415c0.104-0.191,0.17-0.448,0.193-0.768l0.147-0.005
		l0.096,2.992l-0.148,0.006c-0.073-0.563-0.229-0.931-0.473-1.104c-0.244-0.171-0.518-0.252-0.82-0.242l-0.165,0.006l0.059,1.823
		c0.009,0.306,0.031,0.495,0.066,0.57s0.099,0.142,0.197,0.194c0.097,0.053,0.225,0.078,0.385,0.072l0.19-0.006l0.006,0.162
		l-3.002,0.103l-0.004-0.163l0.19-0.005c0.167-0.008,0.3-0.042,0.399-0.106c0.071-0.045,0.126-0.116,0.163-0.217
		c0.027-0.071,0.037-0.257,0.029-0.558l-0.126-3.92c-0.009-0.306-0.03-0.494-0.063-0.57s-0.099-0.14-0.194-0.194
		c-0.098-0.053-0.225-0.077-0.387-0.072l-0.189,0.008l-0.006-0.163l4.842-0.167l0.054,1.711l-0.174,0.006
		c-0.053-0.4-0.163-0.694-0.331-0.882c-0.169-0.188-0.408-0.315-0.717-0.386c-0.171-0.037-0.486-0.049-0.942-0.034L314.174,407.992
		L314.174,407.992z"/>
	<path stroke="#FFFFFF" stroke-width="0.2253" stroke-miterlimit="2.6131" d="M319.028,409.319l0.038,0.932
		c0.244-0.436,0.463-0.728,0.653-0.875c0.19-0.148,0.378-0.227,0.563-0.234c0.157-0.006,0.285,0.038,0.384,0.136
		c0.099,0.096,0.151,0.237,0.16,0.421c0.007,0.197-0.033,0.35-0.119,0.464c-0.088,0.111-0.197,0.17-0.326,0.176
		c-0.148,0.007-0.279-0.038-0.394-0.133s-0.183-0.146-0.202-0.157c-0.028-0.018-0.062-0.024-0.099-0.022
		c-0.081,0.004-0.157,0.04-0.229,0.107c-0.11,0.104-0.19,0.25-0.243,0.436c-0.078,0.288-0.111,0.604-0.098,0.946l0.037,0.943
		l0.015,0.245c0.008,0.166,0.021,0.271,0.044,0.319c0.036,0.077,0.089,0.134,0.156,0.166c0.068,0.034,0.181,0.053,0.338,0.055
		l0.008,0.157l-2.134,0.094l-0.007-0.158c0.171-0.022,0.285-0.077,0.343-0.162c0.057-0.085,0.078-0.308,0.063-0.665l-0.091-2.269
		c-0.009-0.234-0.027-0.384-0.053-0.447c-0.03-0.081-0.075-0.138-0.13-0.173c-0.055-0.036-0.149-0.059-0.286-0.067l-0.006-0.162
		L319.028,409.319L319.028,409.319z"/>
	<path stroke="#FFFFFF" stroke-width="0.2253" stroke-miterlimit="2.6131" d="M324.476,410.961l-2.167,0.111
		c0.053,0.544,0.211,0.967,0.48,1.271c0.205,0.232,0.445,0.342,0.72,0.326c0.168-0.009,0.319-0.063,0.452-0.17
		c0.133-0.105,0.272-0.288,0.418-0.55l0.147,0.088c-0.191,0.464-0.413,0.797-0.663,0.999c-0.249,0.202-0.545,0.312-0.886,0.33
		c-0.586,0.03-1.041-0.182-1.365-0.635c-0.259-0.364-0.402-0.826-0.429-1.385c-0.033-0.685,0.119-1.239,0.456-1.663
		c0.337-0.423,0.745-0.646,1.224-0.672c0.399-0.021,0.755,0.132,1.064,0.457C324.239,409.796,324.421,410.293,324.476,410.961
		L324.476,410.961z M323.423,410.722c-0.022-0.472-0.062-0.793-0.122-0.967c-0.056-0.174-0.139-0.302-0.248-0.388
		c-0.062-0.05-0.143-0.072-0.238-0.066c-0.147,0.008-0.264,0.089-0.35,0.241c-0.154,0.27-0.22,0.631-0.198,1.084l0.007,0.154
		L323.423,410.722L323.423,410.722z"/>
	<path stroke="#FFFFFF" stroke-width="0.2253" stroke-miterlimit="2.6131" d="M328.299,410.734l-2.166,0.13
		c0.056,0.543,0.219,0.965,0.488,1.265c0.207,0.23,0.448,0.339,0.722,0.323c0.17-0.012,0.319-0.067,0.452-0.176
		c0.133-0.105,0.271-0.29,0.414-0.554l0.149,0.088c-0.189,0.466-0.407,0.8-0.656,1.006c-0.249,0.204-0.544,0.315-0.884,0.336
		c-0.586,0.036-1.042-0.174-1.369-0.623c-0.264-0.364-0.411-0.823-0.441-1.382c-0.038-0.685,0.108-1.24,0.443-1.668
		c0.334-0.426,0.741-0.653,1.221-0.683c0.397-0.023,0.755,0.127,1.068,0.449C328.053,409.57,328.24,410.066,328.299,410.734
		L328.299,410.734z M327.243,410.504c-0.026-0.473-0.068-0.796-0.126-0.968c-0.061-0.171-0.146-0.3-0.253-0.385
		c-0.063-0.049-0.144-0.071-0.24-0.064c-0.146,0.008-0.263,0.091-0.349,0.244c-0.151,0.271-0.214,0.632-0.189,1.085l0.008,0.154
		L327.243,410.504L327.243,410.504z"/>
	<path stroke="#FFFFFF" stroke-width="0.2253" stroke-miterlimit="2.6131" d="M332.372,406.688l0.3,4.725
		c0.02,0.318,0.042,0.507,0.062,0.563c0.028,0.095,0.076,0.163,0.142,0.206c0.067,0.042,0.18,0.064,0.338,0.064l0.01,0.146
		l-1.646,0.453l-0.043-0.651c-0.184,0.267-0.351,0.449-0.5,0.552c-0.151,0.102-0.326,0.16-0.521,0.174
		c-0.505,0.033-0.919-0.174-1.241-0.622c-0.26-0.363-0.409-0.822-0.443-1.375c-0.027-0.442,0.02-0.843,0.144-1.203
		c0.125-0.359,0.307-0.637,0.551-0.834c0.245-0.195,0.512-0.304,0.807-0.322c0.187-0.015,0.356,0.013,0.509,0.078
		c0.151,0.066,0.315,0.189,0.494,0.368l-0.08-1.238c-0.018-0.313-0.044-0.502-0.072-0.564c-0.04-0.083-0.095-0.141-0.164-0.177
		c-0.07-0.037-0.2-0.049-0.384-0.036l-0.012-0.185L332.372,406.688L332.372,406.688z M331.365,409.553
		c-0.234-0.401-0.502-0.592-0.803-0.571c-0.104,0.008-0.19,0.044-0.253,0.105c-0.099,0.098-0.175,0.264-0.226,0.497
		c-0.053,0.232-0.063,0.584-0.031,1.057c0.031,0.517,0.092,0.898,0.183,1.141c0.089,0.244,0.2,0.416,0.334,0.518
		c0.068,0.053,0.158,0.076,0.271,0.066c0.247-0.015,0.469-0.236,0.663-0.652L331.365,409.553L331.365,409.553z"/>
	<path stroke="#FFFFFF" stroke-width="0.2253" stroke-miterlimit="2.6131" d="M335.279,408.202c0.344-0.026,0.669,0.041,0.978,0.201
		c0.309,0.161,0.553,0.404,0.729,0.732c0.179,0.325,0.281,0.691,0.312,1.094c0.042,0.583-0.065,1.08-0.319,1.494
		c-0.309,0.498-0.765,0.771-1.37,0.821c-0.593,0.045-1.065-0.135-1.417-0.541c-0.354-0.407-0.549-0.896-0.591-1.466
		c-0.044-0.586,0.084-1.112,0.38-1.574C334.274,408.502,334.709,408.248,335.279,408.202L335.279,408.202z M335.319,408.512
		c-0.144,0.012-0.263,0.079-0.358,0.199c-0.094,0.12-0.143,0.348-0.153,0.683c-0.006,0.333,0.011,0.794,0.052,1.386
		c0.023,0.313,0.064,0.603,0.124,0.871c0.046,0.206,0.123,0.356,0.232,0.458c0.109,0.101,0.229,0.144,0.357,0.134
		c0.127-0.01,0.229-0.055,0.31-0.134c0.104-0.108,0.164-0.252,0.188-0.434c0.035-0.281,0.024-0.846-0.038-1.688
		c-0.036-0.497-0.088-0.837-0.154-1.017c-0.067-0.183-0.156-0.312-0.265-0.387C335.535,408.526,335.438,408.504,335.319,408.512
		L335.319,408.512z"/>
	<path stroke="#FFFFFF" stroke-width="0.2253" stroke-miterlimit="2.6131" d="M339.336,407.988l0.045,0.539
		c0.197-0.266,0.381-0.456,0.559-0.57c0.176-0.114,0.373-0.183,0.593-0.202c0.251-0.023,0.47,0.02,0.652,0.126
		c0.181,0.107,0.329,0.283,0.442,0.525c0.205-0.283,0.403-0.493,0.601-0.629c0.196-0.135,0.407-0.214,0.632-0.233
		c0.272-0.025,0.495,0.02,0.668,0.135c0.174,0.115,0.299,0.27,0.38,0.464c0.08,0.195,0.138,0.512,0.175,0.948l0.143,1.68
		c0.026,0.315,0.071,0.508,0.131,0.58c0.063,0.069,0.181,0.109,0.356,0.116l0.015,0.158l-2.037,0.186l-0.015-0.157
		c0.16-0.029,0.272-0.104,0.338-0.226c0.045-0.082,0.055-0.267,0.031-0.551l-0.148-1.76c-0.031-0.366-0.066-0.598-0.103-0.692
		c-0.035-0.099-0.086-0.168-0.151-0.21c-0.064-0.043-0.138-0.061-0.218-0.053c-0.121,0.011-0.239,0.067-0.355,0.171
		c-0.116,0.103-0.23,0.254-0.342,0.448l0.187,2.2c0.024,0.295,0.065,0.479,0.119,0.55c0.074,0.103,0.201,0.15,0.387,0.146
		l0.013,0.157l-2.041,0.186l-0.013-0.157c0.108-0.015,0.192-0.052,0.252-0.107c0.059-0.058,0.096-0.123,0.111-0.197
		c0.015-0.073,0.011-0.229-0.01-0.468l-0.148-1.763c-0.031-0.372-0.065-0.602-0.1-0.693c-0.036-0.091-0.091-0.159-0.159-0.205
		c-0.071-0.047-0.144-0.066-0.221-0.061c-0.113,0.011-0.212,0.051-0.301,0.12c-0.124,0.103-0.251,0.271-0.381,0.503l0.185,2.2
		c0.024,0.289,0.068,0.479,0.131,0.563c0.063,0.089,0.182,0.132,0.357,0.134l0.014,0.157l-2.032,0.186l-0.015-0.159
		c0.165-0.03,0.279-0.097,0.342-0.196c0.042-0.068,0.049-0.262,0.023-0.577l-0.196-2.313c-0.027-0.31-0.069-0.501-0.131-0.571
		c-0.063-0.07-0.18-0.109-0.357-0.117l-0.013-0.162L339.336,407.988L339.336,407.988z"/>
	<path stroke="#FFFFFF" stroke-width="0.2253" stroke-miterlimit="2.6131" d="M351.934,404.847l0.165,1.606l-0.152,0.018
		c-0.128-0.361-0.255-0.616-0.38-0.767c-0.128-0.149-0.29-0.262-0.489-0.337c-0.114-0.041-0.303-0.047-0.568-0.018l-0.426,0.048
		l0.467,4.575c0.031,0.304,0.067,0.491,0.107,0.564c0.04,0.072,0.111,0.132,0.211,0.178s0.23,0.061,0.394,0.043l0.19-0.022
		l0.016,0.164l-2.989,0.329l-0.017-0.161l0.189-0.021c0.165-0.019,0.295-0.063,0.391-0.137c0.068-0.049,0.119-0.123,0.15-0.229
		c0.024-0.073,0.021-0.257-0.009-0.556l-0.469-4.576l-0.412,0.046c-0.386,0.043-0.656,0.159-0.813,0.347
		c-0.219,0.264-0.339,0.616-0.358,1.062l-0.16,0.019l-0.164-1.606L351.934,404.847L351.934,404.847z"/>
	<path stroke="#FFFFFF" stroke-width="0.2253" stroke-miterlimit="2.6131" d="M353.682,406.499l0.104,0.927
		c0.214-0.453,0.41-0.762,0.59-0.923c0.182-0.162,0.363-0.254,0.546-0.275c0.155-0.018,0.287,0.016,0.393,0.104
		c0.104,0.09,0.167,0.227,0.188,0.41c0.022,0.194-0.008,0.353-0.085,0.47c-0.079,0.119-0.184,0.187-0.313,0.201
		c-0.147,0.019-0.282-0.016-0.402-0.103c-0.121-0.085-0.19-0.133-0.211-0.143c-0.03-0.014-0.064-0.019-0.1-0.014
		c-0.083,0.009-0.156,0.051-0.221,0.124c-0.104,0.113-0.176,0.265-0.214,0.455c-0.059,0.293-0.068,0.609-0.03,0.949l0.104,0.94
		l0.031,0.244c0.019,0.166,0.04,0.27,0.063,0.315c0.042,0.074,0.1,0.124,0.169,0.152c0.07,0.03,0.185,0.039,0.342,0.028l0.018,0.158
		l-2.123,0.254l-0.017-0.155c0.169-0.036,0.28-0.099,0.329-0.189c0.053-0.09,0.057-0.313,0.02-0.668l-0.251-2.258
		c-0.026-0.233-0.055-0.38-0.085-0.441c-0.036-0.079-0.084-0.133-0.14-0.164c-0.059-0.032-0.154-0.046-0.293-0.045l-0.016-0.161
		L353.682,406.499L353.682,406.499z"/>
	<path stroke="#FFFFFF" stroke-width="0.2253" stroke-miterlimit="2.6131" d="M359.23,407.722L357.075,408
		c0.089,0.538,0.278,0.948,0.57,1.23c0.221,0.217,0.468,0.309,0.739,0.272c0.168-0.021,0.315-0.091,0.44-0.205
		c0.125-0.116,0.253-0.311,0.379-0.583l0.153,0.077c-0.158,0.479-0.355,0.829-0.592,1.051c-0.234,0.22-0.521,0.353-0.859,0.396
		c-0.584,0.074-1.053-0.103-1.408-0.531c-0.286-0.342-0.462-0.793-0.528-1.35c-0.081-0.681,0.032-1.246,0.339-1.696
		c0.306-0.447,0.697-0.702,1.173-0.764c0.398-0.052,0.764,0.074,1.097,0.375C358.912,406.576,359.13,407.059,359.23,407.722
		L359.23,407.722z M358.163,407.562c-0.056-0.467-0.12-0.785-0.188-0.955c-0.07-0.167-0.162-0.29-0.278-0.368
		c-0.063-0.044-0.146-0.06-0.243-0.048c-0.146,0.02-0.256,0.107-0.332,0.269c-0.133,0.281-0.174,0.646-0.12,1.099l0.018,0.152
		L358.163,407.562L358.163,407.562z"/>
	<path stroke="#FFFFFF" stroke-width="0.2253" stroke-miterlimit="2.6131" d="M362.074,408.944
		c-0.422,0.506-0.825,0.785-1.205,0.836c-0.224,0.031-0.419-0.019-0.587-0.151c-0.169-0.132-0.267-0.313-0.296-0.542
		c-0.039-0.312,0.055-0.609,0.28-0.893c0.225-0.283,0.743-0.693,1.555-1.224l-0.053-0.411c-0.039-0.308-0.079-0.499-0.123-0.575
		c-0.042-0.076-0.112-0.136-0.209-0.185c-0.098-0.046-0.202-0.063-0.313-0.047c-0.183,0.025-0.327,0.089-0.435,0.188
		c-0.065,0.063-0.095,0.129-0.085,0.198c0.007,0.061,0.057,0.13,0.147,0.21c0.121,0.111,0.19,0.225,0.205,0.34
		c0.018,0.143-0.019,0.271-0.105,0.385c-0.091,0.115-0.218,0.184-0.382,0.206c-0.176,0.024-0.332-0.01-0.465-0.104
		c-0.133-0.094-0.208-0.215-0.228-0.364c-0.027-0.208,0.026-0.419,0.163-0.63c0.134-0.214,0.337-0.39,0.609-0.531
		s0.563-0.233,0.871-0.275c0.371-0.051,0.677-0.011,0.915,0.124s0.4,0.293,0.488,0.477c0.055,0.116,0.111,0.394,0.166,0.833
		l0.204,1.582c0.023,0.186,0.045,0.302,0.064,0.349c0.021,0.046,0.048,0.078,0.078,0.099c0.031,0.019,0.063,0.025,0.1,0.021
		c0.073-0.01,0.141-0.073,0.202-0.192l0.14,0.088c-0.112,0.233-0.237,0.411-0.376,0.528c-0.136,0.118-0.3,0.19-0.49,0.217
		c-0.224,0.03-0.405,0.001-0.544-0.092C362.228,409.316,362.131,409.161,362.074,408.944L362.074,408.944z M362.033,408.626
		l-0.175-1.364c-0.313,0.254-0.536,0.51-0.671,0.768c-0.089,0.173-0.123,0.339-0.102,0.498c0.016,0.133,0.078,0.245,0.182,0.334
		c0.082,0.069,0.184,0.094,0.31,0.077C361.717,408.919,361.869,408.813,362.033,408.626L362.033,408.626z"/>
	<path stroke="#FFFFFF" stroke-width="0.2253" stroke-miterlimit="2.6131" d="M365.073,403.462l0.202,1.489l0.929-0.137l0.059,0.431
		l-0.929,0.137l0.342,2.512c0.031,0.234,0.062,0.386,0.093,0.449c0.03,0.064,0.074,0.116,0.133,0.149
		c0.058,0.035,0.11,0.049,0.156,0.042c0.181-0.026,0.333-0.194,0.456-0.506l0.138,0.077c-0.15,0.589-0.479,0.922-0.988,0.997
		c-0.249,0.035-0.469-0.006-0.658-0.123c-0.192-0.118-0.323-0.263-0.395-0.435c-0.041-0.092-0.091-0.358-0.15-0.793l-0.299-2.199
		l-0.512,0.075l-0.019-0.151c0.316-0.311,0.577-0.626,0.785-0.945c0.209-0.321,0.382-0.671,0.521-1.049L365.073,403.462
		L365.073,403.462z"/>
	<path stroke="#FFFFFF" stroke-width="0.2253" stroke-miterlimit="2.6131" d="M368.957,408.716l-1.699-2.819
		c-0.254-0.427-0.436-0.685-0.541-0.776c-0.105-0.089-0.225-0.145-0.359-0.166l-0.024-0.161l2.081-0.322l0.023,0.161
		c-0.135,0.025-0.227,0.069-0.275,0.128c-0.05,0.057-0.069,0.12-0.059,0.191c0.015,0.109,0.116,0.315,0.304,0.618l0.897,1.49
		l0.28-1.303c0.102-0.464,0.14-0.781,0.115-0.952c-0.016-0.107-0.061-0.188-0.14-0.24c-0.078-0.054-0.203-0.07-0.376-0.049
		l-0.023-0.16l1.31-0.204l0.023,0.16c-0.125,0.034-0.224,0.103-0.29,0.203c-0.069,0.103-0.162,0.424-0.278,0.967l-0.685,3.19
		c-0.173,0.797-0.316,1.295-0.429,1.49c-0.157,0.272-0.382,0.433-0.671,0.479c-0.231,0.035-0.43-0.006-0.594-0.12
		c-0.163-0.115-0.259-0.271-0.288-0.466c-0.023-0.169,0.007-0.314,0.09-0.44c0.083-0.125,0.198-0.199,0.343-0.223
		c0.14-0.021,0.259,0.007,0.357,0.088c0.098,0.08,0.163,0.216,0.193,0.409c0.021,0.109,0.041,0.181,0.069,0.209
		c0.026,0.028,0.061,0.038,0.102,0.032c0.068-0.011,0.133-0.063,0.197-0.16c0.094-0.139,0.185-0.438,0.272-0.896L368.957,408.716
		L368.957,408.716z"/>
</g>
</svg>
